<svg xmlns="http://www.w3.org/2000/svg" viewBox="0 0 1200 630" role="img" aria-labelledby="title desc">
  <title id="title">CallCritter social preview</title>
  <desc id="desc">CallCritter OpenAI DevDay preview card.</desc>
  <rect width="1200" height="630" fill="#f7f7f2"/>
  <circle cx="1010" cy="120" r="230" fill="#dbe8dc"/>
  <circle cx="140" cy="560" r="260" fill="#f5d28b" opacity=".42"/>
  <rect x="90" y="92" width="620" height="380" rx="34" fill="#ffffff" stroke="#d8d4c6" stroke-width="4"/>
  <rect x="122" y="126" width="556" height="264" rx="22" fill="#9fc6b1"/>
  <rect x="190" y="330" width="220" height="42" rx="14" fill="#6f8f79"/>
  <path d="M820 265c0-72 44-126 104-126s104 54 104 126v64c0 58-47 102-104 102s-104-44-104-102z" fill="#77c7a1" stroke="#153f35" stroke-width="14"/>
  <circle cx="892" cy="280" r="14" fill="#153f35"/>
  <circle cx="956" cy="280" r="14" fill="#153f35"/>
  <path d="M900 332c17 15 31 15 48 0" fill="none" stroke="#153f35" stroke-width="12" stroke-linecap="round"/>
  <text x="90" y="535" fill="#171814" font-family="Arial, sans-serif" font-size="76" font-weight="800">CallCritter</text>
  <text x="92" y="590" fill="#256f5a" font-family="Arial, sans-serif" font-size="34" font-weight="700">Built with GPT-5.5 + Image Gen</text>
</svg>
